<svg xmlns="http://www.w3.org/2000/svg" viewBox="0 0 200 200">
  <defs>
    <linearGradient id="girlBg" x1="0%" y1="0%" x2="0%" y2="100%">
      <stop offset="0%" style="stop-color:#EC4899;stop-opacity:1" />
      <stop offset="100%" style="stop-color:#F472B6;stop-opacity:1" />
    </linearGradient>
  </defs>
  <!-- Background Circle -->
  <circle cx="100" cy="100" r="100" fill="url(#girlBg)"/>
  <!-- Face -->
  <circle cx="100" cy="85" r="45" fill="#FFD4A3"/>
  <!-- Hair -->
  <path d="M 55 60 Q 55 30 100 30 Q 145 30 145 60 L 145 90 Q 145 100 135 100 L 65 100 Q 55 100 55 90 Z" fill="#8B4513"/>
  <!-- Hair Bangs -->
  <ellipse cx="75" cy="55" rx="12" ry="20" fill="#8B4513"/>
  <ellipse cx="100" cy="50" rx="12" ry="22" fill="#8B4513"/>
  <ellipse cx="125" cy="55" rx="12" ry="20" fill="#8B4513"/>
  <!-- Eyes -->
  <circle cx="85" cy="80" r="4" fill="#2C1810"/>
  <circle cx="115" cy="80" r="4" fill="#2C1810"/>
  <!-- Eyelashes -->
  <path d="M 82 75 L 80 72" stroke="#2C1810" stroke-width="1.5" stroke-linecap="round"/>
  <path d="M 88 75 L 90 72" stroke="#2C1810" stroke-width="1.5" stroke-linecap="round"/>
  <path d="M 112 75 L 110 72" stroke="#2C1810" stroke-width="1.5" stroke-linecap="round"/>
  <path d="M 118 75 L 120 72" stroke="#2C1810" stroke-width="1.5" stroke-linecap="round"/>
  <!-- Smile -->
  <path d="M 85 95 Q 100 105 115 95" stroke="#2C1810" stroke-width="2" fill="none" stroke-linecap="round"/>
  <!-- Body -->
  <rect x="70" y="125" width="60" height="75" rx="10" fill="#F472B6"/>
  <!-- Collar -->
  <circle cx="100" cy="130" r="8" fill="#FFF" opacity="0.3"/>
</svg>
